<?xml version="1.0" encoding="iso-8859-1"?>
<!-- Generator: Adobe Illustrator 16.0.0, SVG Export Plug-In . SVG Version: 6.00 Build 0)  -->
<!DOCTYPE svg PUBLIC "-//W3C//DTD SVG 1.1//EN" "http://www.w3.org/Graphics/SVG/1.1/DTD/svg11.dtd">
<svg version="1.1" id="Layer_1" xmlns="http://www.w3.org/2000/svg" xmlns:xlink="http://www.w3.org/1999/xlink" x="0px" y="0px"
	 width="256px" height="256px" viewBox="0 0 256 256" style="enable-background:new 0 0 256 256;" xml:space="preserve">
<path d="M238.484,123.397c2.124,0.421,4.192-0.966,4.612-3.087l4.547-22.984c0.42-2.123-0.966-4.191-3.089-4.61l-28.832-5.704
	l4.827-24.406c0.42-2.123-0.966-4.191-3.089-4.613l-22.981-4.545c-2.123-0.42-4.193,0.966-4.613,3.089l-4.827,24.405l-28.832-5.703
	c-2.124-0.421-4.192,0.966-4.613,3.09l-4.546,22.982c-0.42,2.123,0.966,4.19,3.09,4.611l28.831,5.704l-12.067,61.002h-54.004
	v-68.644c0-22.041-17.867-39.908-39.908-39.908c-22.04,0-39.908,17.867-39.908,39.908v68.644h-9.8c-8.284,0-15,6.716-15,15
	s6.716,15,15,15h208.489c8.284,0,15-6.716,15-15s-6.716-15-15-15h-32.984l10.866-54.934L238.484,123.397z"/>
</svg>
